<?xml version="1.0" encoding="UTF-8" standalone="no"?>
<!DOCTYPE svg PUBLIC "-//W3C//DTD SVG 1.1//EN" "http://www.w3.org/Graphics/SVG/1.1/DTD/svg11.dtd">
<svg width="100%" height="100%" viewBox="0 0 255 256" version="1.1" xmlns="http://www.w3.org/2000/svg" xmlns:xlink="http://www.w3.org/1999/xlink" xml:space="preserve" xmlns:serif="http://www.serif.com/" style="fill-rule:evenodd;clip-rule:evenodd;stroke-linejoin:round;stroke-miterlimit:2;">
    <g transform="matrix(1,0,0,1,-550,0)">
        <g id="Facebook" transform="matrix(1,0,0,1,549.84,2.84217e-14)">
            <rect x="0" y="0" width="256" height="256" style="fill:none;"/>
            <g transform="matrix(0.841331,0,0,0.841331,170.358,117.797)">
                <g id="Facebook1" serif:id="Facebook">
                    <path d="M0,31.378L4.771,-5.604L-31.861,-5.604L-31.861,-29.22C-31.861,-39.928 -28.866,-47.225 -13.521,-47.225L6.051,-47.235L6.051,-80.318C2.676,-80.767 -8.943,-81.775 -22.478,-81.775C-50.724,-81.775 -70.045,-64.539 -70.045,-32.878L-70.045,-5.604L-101.99,-5.604L-101.99,31.378L-70.045,31.378L-70.045,113.153L-31.861,113.153L-31.861,31.378L0,31.378Z" style="fill:rgb(32,205,200);fill-rule:nonzero;"/>
                </g>
            </g>
        </g>
    </g>
</svg>
